<?xml version="1.0" encoding="UTF-8"?>
<svg id="Camada_1" data-name="Camada 1" xmlns="http://www.w3.org/2000/svg" viewBox="0 0 1920 3243">
  <defs>
    <style>
      .cls-1 {
        fill: #347658;
      }

      .cls-1, .cls-2, .cls-3, .cls-4 {
        stroke-width: 0px;
      }

      .cls-2 {
        fill: #4f9072;
      }

      .cls-3 {
        fill: #fff;
      }

      .cls-4 {
        fill: #98c741;
      }
    </style>
  </defs>
  <g>
    <path class="cls-1" d="m1207.75,722.18c227.28,53.76,307.8,69.27,333.41,72.02l-510.41,988.98L-2.75,1591.56v-594.83c17-1.57,72.66-3.61,226.5,10.45,197,18,312-119,312-119,0,0,245-267,672-166Z"/>
    <path class="cls-1" d="m1543.16,623.2l2.59-5.02s19.91,7.44-2.59,5.02Z"/>
    <path class="cls-2" d="m1920.25,555.61v1699.16L-.25,2825.44v-1350.56s136.57-170.31,347.45-83.95c210.88,86.36,281.17,103.43,281.17,103.43,0,0,224.94,110.46,457.91-184.77,232.97-295.23,325.36-445.86,325.36-445.86,0,0,211.32-338.78,508.62-308.13Z"/>
    <path class="cls-4" d="m0,2540.37c2.41,1.43,5.04,2.52,7.87,3.54,5.95,2.16,11.95,4.16,18,6.01,12.06,3.7,24.3,6.8,36.66,9.33,24.75,5.05,49.96,7.77,75.21,8.43,25.45.65,50.94-.79,76.19-4.06,25.43-3.29,50.61-8.42,75.35-15.16,24.72-6.74,49.01-15.09,72.68-24.9,3.65-1.52,7.29-3.06,10.91-4.65,120.74-52.75,223.68-138.69,320.87-227.64,97.2-88.96,191.21-182.66,301.05-255.44,176.26-116.79,390.61-175.04,601.74-163.54,118.65,6.46,245.75,40.48,317.66,135.07,1.99,2.62,3.93,5.27,5.81,7.95v1227.19H0v-702.13Z"/>
    <rect class="cls-4" x="1.25" y="2943.5" width="1922" height="299"/>
  </g>
  <g>
    <path class="cls-3" d="m904.68,2012h0c27.77,0,50.32,22.55,50.32,50.32h0c0,26.87-21.81,48.68-48.68,48.68h-50.32v-50.32c0-26.87,21.81-48.68,48.68-48.68Z" transform="translate(-620.15 3717.43) rotate(-113.63)"/>
    <path class="cls-2" d="m1023.68,2012h0c27.77,0,50.32,22.55,50.32,50.32h0c0,26.87-21.81,48.68-48.68,48.68h-50.32v-50.32c0-26.87,21.81-48.68,48.68-48.68Z" transform="translate(2502.45 296.55) rotate(66.37)"/>
  </g>
</svg>