<svg width="12" height="12" viewBox="0 0 12 12" fill="none" xmlns="http://www.w3.org/2000/svg">
<path d="M9.14434 7.74324V3.41745C9.14434 2.91657 8.73453 2.50676 8.23365 2.50676H5.72925" stroke="black" stroke-width="0.399816" stroke-linecap="round" stroke-linejoin="round"/>
<path d="M6.8674 1.36838L5.50136 2.50674L6.8674 3.64511M2.76929 4.10046V8.42625C2.76929 8.92713 3.1791 9.33694 3.67998 9.33694H6.18438M9.14413 10.4753C9.50643 10.4753 9.85389 10.3314 10.1101 10.0752C10.3663 9.81902 10.5102 9.47156 10.5102 9.10926C10.5102 8.74697 10.3663 8.39951 10.1101 8.14333C9.85389 7.88715 9.50643 7.74323 9.14413 7.74323C8.78184 7.74323 8.43438 7.88715 8.1782 8.14333C7.92202 8.39951 7.7781 8.74697 7.7781 9.10926C7.7781 9.47156 7.92202 9.81902 8.1782 10.0752C8.43438 10.3314 8.78184 10.4753 9.14413 10.4753Z" stroke="black" stroke-width="0.399816" stroke-linecap="round" stroke-linejoin="round"/>
<path d="M5.04609 10.4753L6.41213 9.33694L5.04609 8.19857M2.76936 4.10046C3.13166 4.10046 3.47911 3.95653 3.73529 3.70035C3.99148 3.44417 4.1354 3.09671 4.1354 2.73442C4.1354 2.37212 3.99148 2.02466 3.73529 1.76848C3.47911 1.5123 3.13166 1.36838 2.76936 1.36838C2.40706 1.36838 2.05961 1.5123 1.80342 1.76848C1.54724 2.02466 1.40332 2.37212 1.40332 2.73442C1.40332 3.09671 1.54724 3.44417 1.80342 3.70035C2.05961 3.95653 2.40706 4.10046 2.76936 4.10046Z" stroke="black" stroke-width="0.399816" stroke-linecap="round" stroke-linejoin="round"/>
</svg>
