<svg width="1920" height="2372" viewBox="0 0 1920 2372" fill="none" xmlns="http://www.w3.org/2000/svg">
<g clip-path="url(#clip0_6_283)">
<path d="M-718.547 1670.34C-619.098 1753.84 -495.822 1708.04 -401.845 1608.16C-307.869 1508.28 -235.617 1361.48 -159.109 1225.77C-82.6006 1090.05 3.69214 959.169 110.439 906.948C331.837 798.504 562.854 1055.61 792.379 1018.46C957.667 991.656 1100.12 816.283 1225.78 633.557C1351.43 450.737 1474.21 249.394 1629.6 150.63C1816.06 32.0395 2024.03 77.4652 2219.5 143.37C2414.92 209.274 2613.43 294.633 2811.06 250.604V2449H-795L-718.547 1670.34Z" fill="#4F9072"/>
<g clip-path="url(#clip1_6_283)">
<path d="M2062.44 1113.39C2168.42 1235.98 2151.42 1433.76 2052.78 1562.33C1954.14 1690.91 1792.56 1757.96 1632.11 1780.73C1471.66 1803.5 1308.11 1795.42 1146.7 1780.5C509.425 1721.7 308.525 2112 152.145 2243.51C-21.1277 2389.26 -283.268 2297.74 -479.309 2396.55C-577.385 2445.98 -653.203 2560.88 -617.554 2664.77L-631 3107.44L2582.26 3205L2647 1073L2062.44 1113.39Z" fill="#98C741"/>
</g>
</g>
<defs>
<clipPath id="clip0_6_283">
<rect width="3606" height="2372" fill="white" transform="translate(-795)"/>
</clipPath>
<clipPath id="clip1_6_283">
<rect width="3278" height="2132" fill="white" transform="translate(-631 1073)"/>
</clipPath>
</defs>
</svg>
