<svg width="8" height="8" viewBox="0 0 8 8" fill="none" xmlns="http://www.w3.org/2000/svg">
<path d="M6.47777 5.40464C6.47777 5.51078 6.45418 5.61988 6.40406 5.72602C6.35393 5.83217 6.28907 5.93242 6.20356 6.02677C6.05908 6.18599 5.89986 6.30098 5.72 6.37469C5.54309 6.44841 5.35144 6.48674 5.14505 6.48674C4.8443 6.48674 4.52291 6.41597 4.18383 6.2715C3.84475 6.12702 3.50567 5.93242 3.16954 5.68769C2.82696 5.4371 2.50368 5.16113 2.20243 4.86211C1.90427 4.56195 1.62927 4.23965 1.3798 3.89795C1.13802 3.56182 0.943421 3.22569 0.801892 2.89251C0.660364 2.55638 0.5896 2.23499 0.5896 1.92834C0.5896 1.72785 0.624982 1.53619 0.695746 1.35928C0.76651 1.17942 0.878553 1.01431 1.03482 0.866881C1.22353 0.681125 1.42992 0.589722 1.64811 0.589722C1.73067 0.589722 1.81323 0.607413 1.88694 0.642795C1.9636 0.678177 2.03142 0.73125 2.08449 0.807911L2.76855 1.77207C2.82162 1.84579 2.85995 1.9136 2.88649 1.97847C2.91302 2.04039 2.92777 2.10231 2.92777 2.15833C2.92777 2.22909 2.90713 2.29986 2.86585 2.36767C2.82752 2.43549 2.7715 2.50625 2.70073 2.57702L2.47664 2.80995C2.44421 2.84238 2.42947 2.88071 2.42947 2.92789C2.42947 2.95148 2.43242 2.97212 2.43831 2.9957C2.44716 3.01929 2.45601 3.03698 2.4619 3.05467C2.51498 3.15198 2.60638 3.27876 2.73611 3.43208C2.8688 3.58541 3.01032 3.74168 3.16365 3.89795C3.32287 4.05422 3.47619 4.1987 3.63246 4.33138C3.78578 4.46111 3.91257 4.54957 4.01282 4.60264C4.02756 4.60854 4.04525 4.61738 4.06589 4.62623C4.08948 4.63507 4.11307 4.63802 4.1396 4.63802C4.18973 4.63802 4.22806 4.62033 4.26049 4.5879L4.48458 4.36676C4.55829 4.29305 4.62906 4.23703 4.69687 4.20164C4.76469 4.16036 4.8325 4.13973 4.90622 4.13973C4.96224 4.13973 5.02121 4.15152 5.08607 4.17806C5.15094 4.20459 5.21876 4.24292 5.29247 4.29305L6.26843 4.98595C6.34509 5.03902 6.39816 5.10094 6.43059 5.17465C6.46008 5.24836 6.47777 5.32208 6.47777 5.40464Z" stroke="black" stroke-width="0.442276" stroke-miterlimit="10"/>
</svg>
