<svg width="12" height="12" viewBox="0 0 12 12" fill="none" xmlns="http://www.w3.org/2000/svg">
<path d="M3.62045 10.2532V7.22125M3.62045 2.88991V1.59051M8.38492 10.2532V8.95379M8.38492 4.62245V1.59051M4.91985 3.75618V6.35498C4.91985 6.83143 4.70328 7.22125 4.05358 7.22125H3.18731C2.53761 7.22125 2.32104 6.83143 2.32104 6.35498V3.75618C2.32104 3.27973 2.53761 2.88991 3.18731 2.88991H4.05358C4.70328 2.88991 4.91985 3.27973 4.91985 3.75618ZM9.68433 5.48872V8.08752C9.68433 8.56397 9.46776 8.95379 8.81806 8.95379H7.95179C7.30209 8.95379 7.08552 8.56397 7.08552 8.08752V5.48872C7.08552 5.01227 7.30209 4.62245 7.95179 4.62245H8.81806C9.46776 4.62245 9.68433 5.01227 9.68433 5.48872Z" stroke="black" stroke-width="0.399816" stroke-miterlimit="10" stroke-linecap="round" stroke-linejoin="round"/>
</svg>
