<svg width="10" height="11" viewBox="0 0 10 11" fill="none" xmlns="http://www.w3.org/2000/svg">
<path d="M9.61039 0.999979L9.13204 1.47833" stroke="white" stroke-width="0.506494" stroke-linecap="round" stroke-linejoin="round"/>
<path d="M1 1L1.47835 1.47835" stroke="white" stroke-width="0.506494" stroke-linecap="round" stroke-linejoin="round"/>
<path d="M9.61039 7.69694L9.13204 7.21859" stroke="white" stroke-width="0.506494" stroke-linecap="round" stroke-linejoin="round"/>
<path d="M1 7.69694L1.47835 7.21859" stroke="white" stroke-width="0.506494" stroke-linecap="round" stroke-linejoin="round"/>
<path d="M3.87016 8.65361H6.74029" stroke="white" stroke-width="0.506494" stroke-linecap="round" stroke-linejoin="round"/>
<path d="M4.3485 10.0887H6.26192" stroke="white" stroke-width="0.506494" stroke-linecap="round" stroke-linejoin="round"/>
<path d="M5.30511 1.47831C3.39164 1.47831 2.41205 2.41124 2.435 3.87008C2.44619 4.58134 2.67411 5.06597 3.15253 5.54432C3.63096 6.02268 3.87014 6.26186 3.87007 7.21857H6.74017C6.74027 6.2619 6.97944 6.02268 7.45766 5.54437C7.93596 5.06602 8.16409 4.58134 8.17523 3.87008C8.1982 2.41124 7.21862 1.47831 5.30511 1.47831Z" stroke="white" stroke-width="0.506494" stroke-linecap="round" stroke-linejoin="round"/>
</svg>
