<svg width="60" height="60" viewBox="0 0 60 60" fill="none" xmlns="http://www.w3.org/2000/svg">
<path d="M47.5 22.5C47.5 26.125 46.425 29.45 44.575 32.225C43.2194 34.2469 41.456 35.963 39.3981 37.2632C37.3401 38.5634 35.0331 39.419 32.625 39.775C31.775 39.925 30.9 40 30 40C29.1 40 28.225 39.925 27.375 39.775C24.9669 39.419 22.6599 38.5634 20.6019 37.2632C18.544 35.963 16.7806 34.2469 15.425 32.225C13.5058 29.3458 12.4875 25.9602 12.5 22.5C12.5 12.825 20.325 5 30 5C39.675 5 47.5 12.825 47.5 22.5Z" stroke="white" stroke-width="1.5" stroke-linecap="round" stroke-linejoin="round"/>
<path d="M53.125 46.175L49 47.15C48.075 47.375 47.35 48.075 47.15 49L46.275 52.675C46.1677 53.1261 45.937 53.5385 45.6088 53.866C45.2805 54.1936 44.8676 54.4234 44.4163 54.5297C43.965 54.6361 43.4929 54.6148 43.053 54.4683C42.613 54.3217 42.2225 54.0557 41.925 53.7L30 40L18.075 53.725C17.7776 54.0807 17.3871 54.3467 16.9471 54.4933C16.5071 54.6398 16.0351 54.6611 15.5838 54.5547C15.1324 54.4484 14.7195 54.2186 14.3913 53.891C14.063 53.5635 13.8324 53.1511 13.725 52.7L12.85 49.025C12.7437 48.5754 12.5143 48.1642 12.1876 47.8374C11.8609 47.5107 11.4497 47.2814 11 47.175L6.87503 46.2C6.44285 46.0964 6.04596 45.8798 5.72502 45.5724C5.40407 45.265 5.1706 44.8778 5.04851 44.4504C4.92641 44.0231 4.92009 43.571 5.03018 43.1404C5.14027 42.7099 5.36281 42.3163 5.67503 42L15.425 32.25C16.7807 34.2719 18.544 35.988 20.602 37.2882C22.6599 38.5884 24.9669 39.444 27.375 39.8C28.225 39.95 29.1 40.025 30 40.025C30.9 40.025 31.775 39.95 32.625 39.8C37.6 39.075 41.875 36.25 44.575 32.25L54.325 42C55.7 43.35 55.025 45.725 53.125 46.175ZM31.45 14.95L32.925 17.9C33.125 18.3 33.65 18.7 34.125 18.775L36.8 19.225C38.5 19.5 38.9 20.75 37.675 21.975L35.6 24.05C35.25 24.4 35.05 25.075 35.175 25.575L35.775 28.15C36.25 30.175 35.175 30.975 33.375 29.9L30.875 28.425C30.6211 28.2895 30.3378 28.2187 30.05 28.2187C29.7623 28.2187 29.4789 28.2895 29.225 28.425L26.725 29.9C24.925 30.95 23.85 30.175 24.325 28.15L24.925 25.575C25.025 25.1 24.85 24.4 24.5 24.05L22.425 21.975C21.2 20.75 21.6 19.525 23.3 19.225L25.975 18.775C26.425 18.7 26.95 18.3 27.15 17.9L28.625 14.95C29.35 13.35 30.65 13.35 31.45 14.95Z" stroke="white" stroke-width="1.5" stroke-linecap="round" stroke-linejoin="round"/>
</svg>
