<svg width="9" height="9" viewBox="0 0 9 9" fill="none" xmlns="http://www.w3.org/2000/svg">
<g clip-path="url(#clip0_195_72)">
<path d="M6.17107 5.49116C6.66925 5.5748 7.21835 5.48752 7.60381 5.22934C8.11654 4.88752 8.11654 4.32751 7.60381 3.98569C7.21471 3.7275 6.65834 3.64023 6.16016 3.7275M2.54557 5.49116C2.04738 5.5748 1.49828 5.48752 1.11282 5.22934C0.600088 4.88752 0.600088 4.32751 1.11282 3.98569C1.50192 3.7275 2.05829 3.64023 2.55648 3.7275M6.54562 2.84385C6.52273 2.84022 6.49941 2.84022 6.47652 2.84385C6.23384 2.83508 6.00408 2.73229 5.83579 2.55722C5.6675 2.38215 5.57388 2.1485 5.57469 1.90566C5.57469 1.38566 5.99288 0.967468 6.51289 0.967468C6.76171 0.967468 7.00035 1.06631 7.17629 1.24226C7.35224 1.4182 7.45108 1.65684 7.45108 1.90566C7.45041 2.14867 7.35581 2.38202 7.18705 2.55687C7.01829 2.73173 6.78845 2.83456 6.54562 2.84385ZM2.17102 2.84385C2.19283 2.84022 2.21829 2.84022 2.24011 2.84385C2.48279 2.83508 2.71255 2.73229 2.88084 2.55722C3.04913 2.38215 3.14276 2.1485 3.14194 1.90566C3.14194 1.38566 2.72375 0.967468 2.20374 0.967468C1.95492 0.967468 1.71629 1.06631 1.54034 1.24226C1.3644 1.4182 1.26555 1.65684 1.26555 1.90566C1.26919 2.41476 1.66919 2.82567 2.17102 2.84385ZM4.36377 5.56025C4.34088 5.55661 4.31757 5.55661 4.29468 5.56025C4.052 5.55148 3.82223 5.44869 3.65395 5.27362C3.48566 5.09854 3.39203 4.8649 3.39285 4.62206C3.39285 4.10205 3.81104 3.68387 4.33104 3.68387C4.57987 3.68387 4.8185 3.78271 4.99445 3.95866C5.17039 4.1346 5.26924 4.37323 5.26924 4.62206C5.2656 5.13116 4.8656 5.54571 4.36377 5.56025ZM3.30558 6.70572C2.79284 7.04754 2.79284 7.60755 3.30558 7.94937C3.8874 8.33847 4.84014 8.33847 5.42197 7.94937C5.9347 7.60755 5.9347 7.04754 5.42197 6.70572C4.84378 6.32026 3.8874 6.32026 3.30558 6.70572Z" stroke="white" stroke-width="0.523643" stroke-linecap="round" stroke-linejoin="round"/>
</g>
<defs>
<clipPath id="clip0_195_72">
<rect width="8.72738" height="8.72738" fill="white" transform="translate(0 0.240112)"/>
</clipPath>
</defs>
</svg>
